<?xml version="1.0" encoding="utf-8"?>
<!-- Generator: Adobe Illustrator 26.2.1, SVG Export Plug-In . SVG Version: 6.00 Build 0)  -->
<svg version="1.1" id="Layer_1" xmlns="http://www.w3.org/2000/svg" xmlns:xlink="http://www.w3.org/1999/xlink" x="0px" y="0px"
	 viewBox="0 0 1007.26 322.43" style="enable-background:new 0 0 1007.26 322.43;" xml:space="preserve">
<style type="text/css">
	.st0{display:none;fill-rule:evenodd;clip-rule:evenodd;fill:#FFFFFF;}
	.st1{fill:#2D2D2D;}
	.st2{fill-rule:evenodd;clip-rule:evenodd;fill:#2F59A9;}
	.st3{fill-rule:evenodd;clip-rule:evenodd;fill:#4C2D87;}
	.st4{fill-rule:evenodd;clip-rule:evenodd;fill:#DF1F26;}
	.st5{fill-rule:evenodd;clip-rule:evenodd;fill:#F26222;}
	.st6{fill-rule:evenodd;clip-rule:evenodd;fill:#FCB216;}
</style>
<rect x="0.51" class="st0" width="1028.66" height="312.33"/>
<path class="st1" d="M461.87,269.84l2.88-0.25c0.13,1.15,0.45,2.09,0.95,2.83c0.5,0.74,1.27,1.33,2.31,1.79
	c1.04,0.46,2.22,0.68,3.53,0.68c1.17,0,2.19-0.17,3.08-0.52c0.89-0.35,1.56-0.82,1.99-1.42c0.43-0.6,0.65-1.26,0.65-1.97
	c0-0.72-0.21-1.35-0.63-1.89c-0.42-0.54-1.11-1-2.07-1.36c-0.62-0.24-1.99-0.61-4.1-1.12c-2.11-0.51-3.6-0.99-4.44-1.44
	c-1.1-0.57-1.92-1.29-2.46-2.14c-0.54-0.86-0.81-1.81-0.81-2.87c0-1.16,0.33-2.25,0.99-3.25c0.66-1.01,1.62-1.78,2.89-2.3
	c1.27-0.53,2.68-0.79,4.23-0.79c1.71,0,3.21,0.28,4.52,0.82c1.3,0.55,2.31,1.36,3.01,2.43c0.7,1.06,1.08,2.28,1.13,3.63l-2.92,0.22
	c-0.16-1.45-0.69-2.55-1.6-3.29c-0.91-0.75-2.24-1.12-4.01-1.12c-1.84,0-3.18,0.34-4.03,1.01c-0.84,0.67-1.26,1.49-1.26,2.44
	c0,0.83,0.3,1.52,0.89,2.05c0.59,0.54,2.12,1.09,4.6,1.64c2.48,0.56,4.17,1.05,5.09,1.47c1.34,0.62,2.33,1.41,2.97,2.35
	c0.64,0.95,0.96,2.04,0.96,3.27c0,1.23-0.35,2.38-1.05,3.46c-0.7,1.08-1.71,1.92-3.02,2.53c-1.31,0.6-2.79,0.9-4.43,0.9
	c-2.08,0-3.83-0.3-5.24-0.91c-1.41-0.61-2.52-1.52-3.32-2.74C462.33,272.76,461.91,271.37,461.87,269.84L461.87,269.84z
	 M555.71,277.23L555.71,277.23v-23.03h3.05v20.3h11.33v2.72H555.71L555.71,277.23z M643.09,266.02L643.09,266.02
	c0-3.82,1.03-6.81,3.08-8.97c2.06-2.16,4.71-3.24,7.95-3.24c2.12,0,4.04,0.51,5.75,1.52c1.71,1.02,3.01,2.44,3.9,4.25
	c0.89,1.82,1.34,3.88,1.34,6.18c0,2.33-0.47,4.43-1.41,6.26c-0.94,1.84-2.28,3.24-4,4.19c-1.73,0.95-3.59,1.42-5.59,1.42
	c-2.17,0-4.1-0.52-5.81-1.57c-1.71-1.05-3-2.48-3.88-4.29C643.53,269.95,643.09,268.04,643.09,266.02L643.09,266.02z M646.24,266.07
	L646.24,266.07c0,2.78,0.74,4.96,2.23,6.56c1.5,1.6,3.37,2.4,5.62,2.4c2.29,0,4.18-0.81,5.66-2.42c1.48-1.62,2.22-3.9,2.22-6.87
	c0-1.87-0.32-3.5-0.96-4.9c-0.63-1.4-1.56-2.48-2.78-3.26c-1.22-0.77-2.59-1.15-4.11-1.15c-2.16,0-4.01,0.74-5.57,2.23
	C647.01,260.13,646.24,262.6,646.24,266.07L646.24,266.07z M751.3,268.2L751.3,268.2v-2.69l9.75-0.02v8.54
	c-1.49,1.2-3.04,2.09-4.63,2.7c-1.6,0.6-3.23,0.9-4.9,0.9c-2.26,0-4.32-0.48-6.16-1.45c-1.85-0.97-3.24-2.37-4.18-4.19
	c-0.94-1.84-1.42-3.88-1.42-6.15c0-2.24,0.48-4.33,1.41-6.27c0.93-1.95,2.28-3.39,4.04-4.34c1.76-0.93,3.78-1.41,6.08-1.41
	c1.66,0,3.16,0.27,4.51,0.81c1.34,0.54,2.4,1.29,3.16,2.25c0.77,0.97,1.34,2.22,1.74,3.77l-2.75,0.76c-0.34-1.17-0.77-2.1-1.28-2.77
	c-0.52-0.67-1.25-1.21-2.2-1.61c-0.95-0.4-2.02-0.6-3.17-0.6c-1.39,0-2.6,0.21-3.61,0.63c-1.02,0.42-1.83,0.98-2.46,1.68
	c-0.62,0.69-1.1,1.45-1.46,2.28c-0.58,1.42-0.87,2.96-0.87,4.63c0,2.05,0.35,3.77,1.06,5.15c0.71,1.38,1.74,2.4,3.09,3.08
	c1.35,0.67,2.79,1.01,4.3,1.01c1.32,0,2.61-0.26,3.87-0.76c1.26-0.51,2.21-1.05,2.86-1.62v-4.29H751.3L751.3,268.2z M832.72,277.23
	L832.72,277.23l8.85-23.03h3.28l9.42,23.03h-3.47l-2.68-6.98h-9.63l-2.53,6.98H832.72L832.72,277.23z M839.36,267.77L839.36,267.77
	h7.81l-2.41-6.37c-0.73-1.93-1.27-3.53-1.62-4.78c-0.29,1.48-0.71,2.94-1.24,4.4L839.36,267.77L839.36,267.77z M926.39,277.23
	L926.39,277.23v-23.03h3.12l12.1,18.08v-18.08h2.91v23.03h-3.12l-12.09-18.09v18.09H926.39z"/>
<g>
	<path class="st1" d="M436.25,134.92v18.63h15.68v12.33h-15.68v28.81c0,7.91,2.14,12.07,8.44,12.07c2.82,0,4.96-0.4,6.43-0.81
		l0.27,12.59c-2.41,0.94-6.7,1.62-11.93,1.62c-6.03,0-11.12-2.01-14.21-5.36c-3.48-3.75-5.09-9.66-5.09-18.23v-30.68h-9.38v-12.33
		h9.38V138.8L436.25,134.92z"/>
	<path class="st1" d="M475.27,190.79c0.4,11.79,9.65,16.89,20.1,16.89c7.64,0,13.14-1.08,18.09-2.96l2.42,11.39
		c-5.63,2.29-13.4,4.03-22.78,4.03c-21.17,0-33.63-12.99-33.63-32.96c0-18.09,10.99-35.11,31.89-35.11
		c21.17,0,28.14,17.41,28.14,31.76c0,3.08-0.27,5.49-0.54,6.96H475.27z M503.95,179.27c0.14-6.04-2.54-15.94-13.53-15.94
		c-10.19,0-14.47,9.24-15.14,15.94H503.95z"/>
	<path class="st1" d="M569.51,218.8l-1.07-7.24h-0.4c-4.02,5.1-10.85,8.71-19.3,8.71c-13.13,0-20.5-9.52-20.5-19.43
		c0-16.48,14.6-24.79,38.73-24.65v-1.08c0-4.29-1.75-11.39-13.27-11.39c-6.43,0-13.13,2.02-17.56,4.83l-3.21-10.73
		c4.82-2.95,13.26-5.76,23.59-5.76c20.9,0,26.93,13.27,26.93,27.47v23.58c0,5.89,0.27,11.66,0.94,15.68H569.51z M567.37,186.91
		c-11.66-0.27-22.78,2.28-22.78,12.2c0,6.43,4.15,9.37,9.38,9.37c6.57,0,11.39-4.29,12.86-8.97c0.4-1.21,0.53-2.55,0.53-3.62V186.91
		z"/>
	<path class="st1" d="M600.91,172.98c0-7.51-0.13-13.8-0.53-19.43h14.21l0.67,9.64h0.4c3.22-5.08,9.11-11.12,20.1-11.12
		c8.58,0,15.27,4.82,18.09,12.06h0.27c2.28-3.61,4.96-6.29,8.04-8.17c3.62-2.54,7.77-3.88,13.13-3.88
		c10.86,0,21.84,7.37,21.84,28.27v38.46h-16.08v-36.05c0-10.84-3.75-17.28-11.65-17.28c-5.63,0-9.79,4.01-11.53,8.71
		c-0.4,1.62-0.8,3.62-0.8,5.5v39.13h-16.08v-37.79c0-9.11-3.62-15.55-11.25-15.55c-6.17,0-10.32,4.82-11.79,9.38
		c-0.67,1.6-0.94,3.48-0.94,5.36v38.6h-16.08V172.98z"/>
	<path class="st1" d="M722.38,153.54l6.83,29.61c1.48,6.97,2.95,14.08,4.16,21.18h0.27c1.34-7.1,3.49-14.34,5.36-21.04l8.45-29.74
		h13.4l8.17,28.95c2.01,7.64,3.75,14.74,5.23,21.84h0.27c1.07-7.1,2.54-14.2,4.29-21.84l7.23-28.95h16.22l-20.5,65.26h-15.27
		l-7.78-26.54c-2.01-6.83-3.48-12.99-4.96-20.91h-0.27c-1.34,8.04-3.08,14.48-4.96,20.91l-8.3,26.54h-15.41l-19.29-65.26H722.38z"/>
	<path class="st1" d="M873.19,185.57c0,23.99-16.88,34.71-33.5,34.71c-18.49,0-32.69-12.74-32.69-33.64
		c0-21.43,14.07-34.57,33.76-34.57C860.18,152.07,873.19,165.74,873.19,185.57z M824,186.25c0,12.59,6.16,22.1,16.21,22.1
		c9.38,0,15.95-9.24,15.95-22.38c0-10.18-4.56-21.84-15.81-21.84C828.7,164.13,824,175.39,824,186.25z"/>
	<path class="st1" d="M886.76,174.58c0-8.84-0.13-15.14-0.54-21.04h14.34l0.54,12.46h0.54c3.21-9.24,10.85-13.93,17.82-13.93
		c1.61,0,2.55,0.13,3.89,0.4v15.54c-1.34-0.26-2.81-0.54-4.83-0.54c-7.91,0-13.26,5.1-14.74,12.46c-0.27,1.48-0.54,3.22-0.54,5.1
		v33.77h-16.48V174.58z"/>
	<path class="st1" d="M950.97,182.22h0.27c1.61-2.54,3.49-5.36,5.23-7.64l15.82-21.04h19.83l-24.12,26.66l27.6,38.6h-20.23
		L956.6,190l-5.63,6.56v22.25h-16.48v-95.15h16.48V182.22z"/>
</g>
<polygon class="st2" points="201.7,123.28 201.52,123.66 105.55,123.66 105.55,312.33 9.39,123.28 "/>
<polygon class="st3" points="201.52,123.66 105.55,312.33 105.55,123.66 "/>
<path class="st4" d="M294.22,312.33H105.55l95.97-188.67h92.7c-52.1,0-94.33,42.24-94.33,94.33
	C199.88,270.09,242.12,312.33,294.22,312.33z"/>
<path class="st5" d="M294.22,123.66v188.67c-52.1,0-94.33-42.23-94.33-94.33C199.88,165.89,242.12,123.66,294.22,123.66z"/>
<path class="st6" d="M388.55,217.99c0,52.1-42.24,94.33-94.33,94.33V123.66C346.32,123.66,388.55,165.89,388.55,217.99z"/>
<path class="st2" d="M145.61,56.26c0,22.13-17.94,40.06-40.06,40.06c-22.13,0-40.06-17.94-40.06-40.06
	c0-22.13,17.94-40.06,40.06-40.06C127.68,16.2,145.61,34.14,145.61,56.26z"/>
<path class="st4" d="M239.95,56.26c0,22.13-17.94,40.06-40.06,40.06c-22.13,0-40.06-17.94-40.06-40.06
	c0-22.13,17.94-40.06,40.06-40.06C222.01,16.2,239.95,34.14,239.95,56.26z"/>
<path class="st6" d="M334.28,56.26c0,22.13-17.94,40.06-40.06,40.06c-22.13,0-40.06-17.94-40.06-40.06
	c0-22.13,17.94-40.06,40.06-40.06C316.34,16.2,334.28,34.14,334.28,56.26z"/>
</svg>
